<svg width="774" height="294" viewBox="0 0 774 294" fill="none" xmlns="http://www.w3.org/2000/svg">
<mask id="mask0_40_823" style="mask-type:alpha" maskUnits="userSpaceOnUse" x="17" y="0" width="707" height="274">
<path d="M17.3934 221.828V177.925L127.205 4.50161H164.965V65.2706H142.617L73.391 175.093V177.153H229.439V221.828H17.3934ZM143.645 268.177V208.438L144.672 188.997V4.50161H196.817V268.177H143.645Z" fill="#2862FF"/>
<path d="M369.626 273.971C347.535 273.885 328.527 268.435 312.601 257.62C296.761 246.805 284.559 231.141 275.997 210.627C267.52 190.113 263.325 165.436 263.41 136.597C263.41 107.843 267.649 83.3382 276.125 63.0819C284.688 42.8256 296.889 27.4187 312.729 16.8614C328.655 6.21825 347.621 0.896667 369.626 0.896667C391.631 0.896667 410.554 6.21825 426.394 16.8614C442.32 27.5046 454.564 42.9543 463.127 63.2107C471.689 83.3812 475.927 107.843 475.842 136.597C475.842 165.522 471.56 190.242 462.998 210.756C454.521 231.27 442.363 246.934 426.523 257.749C410.682 268.564 391.717 273.971 369.626 273.971ZM369.626 227.75C384.696 227.75 396.726 220.154 405.716 204.962C414.707 189.77 419.159 166.981 419.073 136.597C419.073 116.598 417.018 99.9467 412.909 86.6428C408.884 73.3388 403.148 63.3394 395.698 56.6445C388.335 49.9496 379.644 46.6022 369.626 46.6022C354.642 46.6022 342.655 54.1125 333.664 69.1331C324.674 84.1536 320.136 106.642 320.05 136.597C320.05 156.853 322.062 173.762 326.087 187.324C330.196 200.799 335.976 210.927 343.425 217.708C350.874 224.403 359.608 227.75 369.626 227.75Z" fill="#2862FF"/>
<path d="M511.514 221.828V177.925L621.326 4.50161H659.086V65.2706H636.738L567.512 175.093V177.153H723.56V221.828H511.514ZM637.766 268.177V208.438L638.793 188.997V4.50161H690.938V268.177H637.766Z" fill="#2862FF"/>
</mask>
<g mask="url(#mask0_40_823)">
<rect x="17.3933" y="217.617" width="706.167" height="56.3542" fill="#56EBFF"/>
</g>
<mask id="mask1_40_823" style="mask-type:alpha" maskUnits="userSpaceOnUse" x="15" y="0" width="707" height="274">
<path d="M15.6543 221.828V177.925L125.466 4.50161H163.226V65.2706H140.878L71.6519 175.093V177.153H227.7V221.828H15.6543ZM141.906 268.177V208.438L142.933 188.997V4.50161H195.078V268.177H141.906Z" fill="#2862FF"/>
<path d="M367.887 273.971C345.796 273.885 326.788 268.435 310.862 257.62C295.022 246.805 282.82 231.141 274.258 210.627C265.781 190.113 261.586 165.436 261.671 136.597C261.671 107.843 265.91 83.3382 274.386 63.0819C282.949 42.8256 295.15 27.4187 310.99 16.8614C326.916 6.21825 345.882 0.896667 367.887 0.896667C389.892 0.896667 408.815 6.21825 424.655 16.8614C440.581 27.5046 452.825 42.9543 461.387 63.2106C469.95 83.3812 474.188 107.843 474.103 136.597C474.103 165.522 469.821 190.242 461.259 210.756C452.782 231.27 440.624 246.934 424.784 257.749C408.943 268.564 389.978 273.971 367.887 273.971ZM367.887 227.75C382.957 227.75 394.987 220.154 403.977 204.962C412.968 189.77 417.42 166.981 417.334 136.597C417.334 116.598 415.279 99.9467 411.169 86.6428C407.145 73.3388 401.408 63.3394 393.959 56.6445C386.596 49.9496 377.905 46.6022 367.887 46.6022C352.903 46.6022 340.916 54.1125 331.925 69.1331C322.935 84.1536 318.397 106.642 318.311 136.597C318.311 156.853 320.323 173.762 324.347 187.324C328.457 200.799 334.237 210.927 341.686 217.708C349.135 224.403 357.869 227.75 367.887 227.75Z" fill="#2862FF"/>
<path d="M509.775 221.828V177.925L619.587 4.50161H657.347V65.2706H634.999L565.773 175.093V177.153H721.821V221.828H509.775ZM636.027 268.177V208.438L637.054 188.997V4.50161H689.199V268.177H636.027Z" fill="#2862FF"/>
</mask>
<g mask="url(#mask1_40_823)">
<rect x="15.6544" y="163.349" width="706.167" height="54.6149" fill="#56EBFF"/>
</g>
<mask id="mask2_40_823" style="mask-type:alpha" maskUnits="userSpaceOnUse" x="50" y="0" width="707" height="274">
<path d="M50.4407 221.828V177.925L160.253 4.50161H198.012V65.2706H175.665L106.438 175.093V177.153H262.487V221.828H50.4407ZM176.692 268.177V208.438L177.72 188.997V4.50161H229.864V268.177H176.692Z" fill="#2862FF"/>
<path d="M402.673 273.971C380.582 273.885 361.574 268.435 345.648 257.62C329.808 246.805 317.607 231.141 309.044 210.627C300.568 190.113 296.372 165.436 296.458 136.597C296.458 107.843 300.696 83.3382 309.173 63.0819C317.735 42.8256 329.936 27.4187 345.777 16.8614C361.703 6.21825 380.668 0.896667 402.673 0.896667C424.678 0.896667 443.601 6.21825 459.441 16.8614C475.367 27.5046 487.612 42.9543 496.174 63.2106C504.736 83.3811 508.975 107.843 508.889 136.597C508.889 165.522 504.608 190.242 496.045 210.756C487.569 231.27 475.41 246.934 459.57 257.749C443.73 268.564 424.764 273.971 402.673 273.971ZM402.673 227.75C417.743 227.75 429.773 220.154 438.764 204.962C447.754 189.77 452.206 166.981 452.121 136.597C452.121 116.598 450.066 99.9467 445.956 86.6428C441.932 73.3388 436.195 63.3394 428.746 56.6445C421.382 49.9496 412.691 46.6022 402.673 46.6022C387.689 46.6022 375.702 54.1125 366.712 69.1331C357.721 84.1536 353.183 106.642 353.097 136.597C353.097 156.853 355.11 173.762 359.134 187.324C363.244 200.799 369.023 210.927 376.473 217.708C383.922 224.403 392.655 227.75 402.673 227.75Z" fill="#2862FF"/>
<path d="M544.562 221.828V177.925L654.373 4.50161H692.133V65.2706H669.786L600.559 175.093V177.153H756.608V221.828H544.562ZM670.813 268.177V208.438L671.841 188.997V4.50161H723.985V268.177H670.813Z" fill="#2862FF"/>
</mask>
<g mask="url(#mask2_40_823)">
<rect x="50.4408" y="108.735" width="706.167" height="54.6149" fill="#56EBFF"/>
</g>
<mask id="mask3_40_823" style="mask-type:alpha" maskUnits="userSpaceOnUse" x="0" y="20" width="707" height="274">
<path d="M0 240.96V197.057L109.812 23.6337H147.572V84.4027H125.224L55.9976 194.225V196.285H212.046V240.96H0ZM126.251 287.309V227.57L127.279 208.129V23.6337H179.423V287.309H126.251Z" fill="#2862FF"/>
<path d="M352.233 293.103C330.142 293.017 311.133 287.567 295.207 276.752C279.367 265.937 267.166 250.273 258.604 229.759C250.127 209.245 245.931 184.569 246.017 155.729C246.017 126.975 250.255 102.47 258.732 82.214C267.294 61.9576 279.496 46.5508 295.336 35.9935C311.262 25.3503 330.227 20.0287 352.233 20.0287C374.238 20.0287 393.16 25.3503 409.001 35.9935C424.927 46.6367 437.171 62.0864 445.733 82.3427C454.295 102.513 458.534 126.975 458.448 155.729C458.448 184.654 454.167 209.374 445.605 229.888C437.128 250.402 424.97 266.066 409.129 276.881C393.289 287.696 374.323 293.103 352.233 293.103ZM352.233 246.883C367.302 246.883 379.332 239.286 388.323 224.094C397.313 208.902 401.766 186.114 401.68 155.729C401.68 135.73 399.625 119.079 395.515 105.775C391.491 92.4709 385.754 82.4715 378.305 75.7766C370.941 69.0817 362.25 65.7343 352.233 65.7343C337.249 65.7343 325.261 73.2446 316.271 88.2651C307.28 103.286 302.742 125.774 302.657 155.729C302.657 175.985 304.669 192.894 308.693 206.456C312.803 219.931 318.583 230.059 326.032 236.84C333.481 243.535 342.215 246.883 352.233 246.883Z" fill="#2862FF"/>
<path d="M494.121 240.96V197.057L603.933 23.6337H641.693V84.4027H619.345L550.119 194.225V196.285H706.167V240.96H494.121ZM620.372 287.309V227.57L621.4 208.129V23.6337H673.544V287.309H620.372Z" fill="#2862FF"/>
</mask>
<g mask="url(#mask3_40_823)">
<rect y="73.2526" width="706.167" height="54.6149" fill="#56EBFF"/>
</g>
<mask id="mask4_40_823" style="mask-type:alpha" maskUnits="userSpaceOnUse" x="20" y="0" width="708" height="274">
<path d="M20.8714 221.828V177.925L130.683 4.50161H168.443V65.2706H146.095L76.869 175.093V177.153H232.917V221.828H20.8714ZM147.123 268.177V208.438L148.15 188.997V4.50161H200.295V268.177H147.123Z" fill="#2862FF"/>
<path d="M373.104 273.971C351.013 273.885 332.005 268.435 316.079 257.62C300.239 246.805 288.037 231.141 279.475 210.627C270.998 190.113 266.803 165.436 266.888 136.597C266.888 107.843 271.127 83.3382 279.603 63.0819C288.166 42.8256 300.367 27.4187 316.207 16.8614C332.133 6.21825 351.099 0.896667 373.104 0.896667C395.109 0.896667 414.032 6.21825 429.872 16.8614C445.798 27.5046 458.042 42.9543 466.605 63.2106C475.167 83.3811 479.405 107.843 479.32 136.597C479.32 165.522 475.038 190.242 466.476 210.756C457.999 231.27 445.841 246.934 430.001 257.749C414.16 268.564 395.195 273.971 373.104 273.971ZM373.104 227.75C388.174 227.75 400.204 220.154 409.194 204.962C418.185 189.77 422.637 166.981 422.551 136.597C422.551 116.598 420.496 99.9467 416.387 86.6428C412.362 73.3388 406.626 63.3394 399.176 56.6445C391.813 49.9496 383.122 46.6022 373.104 46.6022C358.12 46.6022 346.133 54.1125 337.142 69.1331C328.152 84.1536 323.614 106.642 323.528 136.597C323.528 156.853 325.54 173.762 329.565 187.324C333.674 200.799 339.454 210.927 346.903 217.708C354.353 224.403 363.086 227.75 373.104 227.75Z" fill="#2862FF"/>
<path d="M514.992 221.828V177.925L624.804 4.50161H662.564V65.2706H640.216L570.99 175.093V177.153H727.038V221.828H514.992ZM641.244 268.177V208.438L642.271 188.997V4.50161H694.416V268.177H641.244Z" fill="#2862FF"/>
</mask>
<g mask="url(#mask4_40_823)">
<rect x="20.8714" y="0.896667" width="706.167" height="54.6149" fill="#56EBFF"/>
</g>
<mask id="mask5_40_823" style="mask-type:alpha" maskUnits="userSpaceOnUse" x="62" y="0" width="707" height="274">
<path d="M62.6159 221.828V177.925L172.428 4.50161H210.188V65.2706H187.84L118.614 175.093V177.153H274.662V221.828H62.6159ZM188.867 268.177V208.438L189.895 188.997V4.50161H242.039V268.177H188.867Z" fill="#2862FF"/>
<path d="M414.848 273.971C392.758 273.885 373.749 268.435 357.823 257.62C341.983 246.805 329.782 231.141 321.219 210.627C312.743 190.113 308.547 165.436 308.633 136.597C308.633 107.843 312.871 83.3382 321.348 63.0819C329.91 42.8256 342.112 27.4187 357.952 16.8614C373.878 6.21825 392.843 0.896667 414.848 0.896667C436.854 0.896667 455.776 6.21825 471.617 16.8614C487.543 27.5046 499.787 42.9543 508.349 63.2107C516.911 83.3812 521.15 107.843 521.064 136.597C521.064 165.522 516.783 190.242 508.221 210.756C499.744 231.27 487.585 246.934 471.745 257.749C455.905 268.564 436.939 273.971 414.848 273.971ZM414.848 227.75C429.918 227.75 441.948 220.154 450.939 204.962C459.929 189.77 464.382 166.981 464.296 136.597C464.296 116.598 462.241 99.9467 458.131 86.6428C454.107 73.3388 448.37 63.3394 440.921 56.6445C433.557 49.9496 424.866 46.6022 414.848 46.6022C399.864 46.6022 387.877 54.1125 378.887 69.1331C369.896 84.1536 365.358 106.642 365.273 136.597C365.273 156.853 367.285 173.762 371.309 187.324C375.419 200.799 381.199 210.927 388.648 217.708C396.097 224.403 404.831 227.75 414.848 227.75Z" fill="#2862FF"/>
<path d="M556.737 221.828V177.925L666.549 4.50161H704.308V65.2706H681.961L612.734 175.093V177.153H768.783V221.828H556.737ZM682.988 268.177V208.438L684.016 188.997V4.50161H736.16V268.177H682.988Z" fill="#2862FF"/>
</mask>
<g mask="url(#mask5_40_823)">
<rect x="62.616" y="217.617" width="706.167" height="56.3542" fill="#FF0000"/>
</g>
<mask id="mask6_40_823" style="mask-type:alpha" maskUnits="userSpaceOnUse" x="64" y="0" width="707" height="274">
<path d="M64.3548 221.828V177.925L174.167 4.50161H211.926V65.2706H189.579L120.352 175.093V177.153H276.401V221.828H64.3548ZM190.606 268.177V208.438L191.634 188.997V4.50161H243.778V268.177H190.606Z" fill="#2862FF"/>
<path d="M416.587 273.971C394.497 273.885 375.488 268.435 359.562 257.62C343.722 246.805 331.521 231.141 322.958 210.627C314.482 190.113 310.286 165.436 310.372 136.597C310.372 107.843 314.61 83.3382 323.087 63.0819C331.649 42.8256 343.85 27.4187 359.691 16.8614C375.617 6.21825 394.582 0.896667 416.587 0.896667C438.593 0.896667 457.515 6.21825 473.356 16.8614C489.281 27.5046 501.526 42.9543 510.088 63.2106C518.65 83.3812 522.889 107.843 522.803 136.597C522.803 165.522 518.522 190.242 509.96 210.756C501.483 231.27 489.324 246.934 473.484 257.749C457.644 268.564 438.678 273.971 416.587 273.971ZM416.587 227.75C431.657 227.75 443.687 220.154 452.678 204.962C461.668 189.77 466.12 166.981 466.035 136.597C466.035 116.598 463.98 99.9467 459.87 86.6428C455.846 73.3388 450.109 63.3394 442.66 56.6445C435.296 49.9496 426.605 46.6022 416.587 46.6022C401.603 46.6022 389.616 54.1125 380.626 69.1331C371.635 84.1536 367.097 106.642 367.012 136.597C367.012 156.853 369.024 173.762 373.048 187.324C377.158 200.799 382.937 210.927 390.387 217.708C397.836 224.403 406.569 227.75 416.587 227.75Z" fill="#2862FF"/>
<path d="M558.476 221.828V177.925L668.288 4.50161H706.047V65.2706H683.7L614.473 175.093V177.153H770.522V221.828H558.476ZM684.727 268.177V208.438L685.755 188.997V4.50161H737.899V268.177H684.727Z" fill="#2862FF"/>
</mask>
<g mask="url(#mask6_40_823)">
<rect x="64.3545" y="163.349" width="706.167" height="54.6149" fill="#FF0000"/>
</g>
<mask id="mask7_40_823" style="mask-type:alpha" maskUnits="userSpaceOnUse" x="64" y="0" width="707" height="274">
<path d="M64.3548 221.828V177.925L174.167 4.50161H211.926V65.2706H189.579L120.352 175.093V177.153H276.401V221.828H64.3548ZM190.606 268.177V208.438L191.634 188.997V4.50161H243.778V268.177H190.606Z" fill="#2862FF"/>
<path d="M416.587 273.971C394.497 273.885 375.488 268.435 359.562 257.62C343.722 246.805 331.521 231.141 322.958 210.627C314.482 190.113 310.286 165.436 310.372 136.597C310.372 107.843 314.61 83.3382 323.087 63.0819C331.649 42.8256 343.85 27.4187 359.691 16.8614C375.617 6.21825 394.582 0.896667 416.587 0.896667C438.593 0.896667 457.515 6.21825 473.356 16.8614C489.281 27.5046 501.526 42.9543 510.088 63.2106C518.65 83.3811 522.889 107.843 522.803 136.597C522.803 165.522 518.522 190.242 509.959 210.756C501.483 231.27 489.324 246.934 473.484 257.749C457.644 268.564 438.678 273.971 416.587 273.971ZM416.587 227.75C431.657 227.75 443.687 220.154 452.678 204.962C461.668 189.77 466.12 166.981 466.035 136.597C466.035 116.598 463.98 99.9467 459.87 86.6428C455.846 73.3388 450.109 63.3394 442.66 56.6445C435.296 49.9496 426.605 46.6022 416.587 46.6022C401.603 46.6022 389.616 54.1125 380.626 69.1331C371.635 84.1536 367.097 106.642 367.012 136.597C367.012 156.853 369.024 173.762 373.048 187.324C377.158 200.799 382.937 210.927 390.387 217.708C397.836 224.403 406.569 227.75 416.587 227.75Z" fill="#2862FF"/>
<path d="M558.476 221.828V177.925L668.288 4.50161H706.047V65.2706H683.7L614.473 175.093V177.153H770.522V221.828H558.476ZM684.727 268.177V208.438L685.755 188.997V4.50161H737.899V268.177H684.727Z" fill="#2862FF"/>
</mask>
<g mask="url(#mask7_40_823)">
<rect x="64.3545" y="108.735" width="706.167" height="54.6149" fill="#FF0000"/>
</g>
<mask id="mask8_40_823" style="mask-type:alpha" maskUnits="userSpaceOnUse" x="20" y="0" width="708" height="274">
<path d="M20.8714 221.828V177.925L130.683 4.50167H168.443V65.2707H146.095L76.869 175.093V177.153H232.917V221.828H20.8714ZM147.123 268.177V208.438L148.15 188.997V4.50167H200.295V268.177H147.123Z" fill="#2862FF"/>
<path d="M373.104 273.971C351.013 273.885 332.005 268.435 316.079 257.62C300.239 246.805 288.037 231.141 279.475 210.627C270.998 190.113 266.803 165.437 266.888 136.597C266.888 107.843 271.127 83.3383 279.603 63.082C288.166 42.8256 300.367 27.4188 316.207 16.8615C332.133 6.21831 351.099 0.896729 373.104 0.896729C395.109 0.896729 414.032 6.21831 429.872 16.8615C445.798 27.5046 458.042 42.9544 466.605 63.2107C475.167 83.3812 479.405 107.843 479.32 136.597C479.32 165.522 475.038 190.242 466.476 210.756C457.999 231.27 445.841 246.934 430.001 257.749C414.16 268.564 395.195 273.971 373.104 273.971ZM373.104 227.751C388.174 227.751 400.204 220.154 409.194 204.962C418.185 189.77 422.637 166.982 422.551 136.597C422.551 116.598 420.496 99.9468 416.387 86.6428C412.362 73.3389 406.626 63.3395 399.176 56.6446C391.813 49.9497 383.122 46.6022 373.104 46.6022C358.12 46.6022 346.133 54.1125 337.142 69.1331C328.152 84.1537 323.614 106.642 323.528 136.597C323.528 156.853 325.54 173.762 329.565 187.324C333.674 200.799 339.454 210.927 346.903 217.708C354.353 224.403 363.086 227.751 373.104 227.751Z" fill="#2862FF"/>
<path d="M514.992 221.828V177.925L624.804 4.50167H662.564V65.2707H640.216L570.99 175.093V177.153H727.038V221.828H514.992ZM641.244 268.177V208.438L642.271 188.997V4.50167H694.416V268.177H641.244Z" fill="#2862FF"/>
</mask>
<g mask="url(#mask8_40_823)">
<rect x="20.8716" y="54.1203" width="706.167" height="54.6149" fill="#FF0000"/>
</g>
<mask id="mask9_40_823" style="mask-type:alpha" maskUnits="userSpaceOnUse" x="48" y="0" width="707" height="274">
<path d="M48.7007 221.828V177.925L158.513 4.50161H196.272V65.2706H173.925L104.698 175.093V177.153H260.747V221.828H48.7007ZM174.952 268.177V208.438L175.98 188.997V4.50161H228.124V268.177H174.952Z" fill="#2862FF"/>
<path d="M400.933 273.971C378.842 273.885 359.834 268.435 343.908 257.62C328.068 246.805 315.867 231.141 307.304 210.627C298.828 190.113 294.632 165.436 294.718 136.597C294.718 107.843 298.956 83.3382 307.433 63.0819C315.995 42.8256 328.196 27.4187 344.037 16.8614C359.963 6.21825 378.928 0.896667 400.933 0.896667C422.938 0.896667 441.861 6.21825 457.701 16.8614C473.627 27.5046 485.872 42.9543 494.434 63.2106C502.996 83.3811 507.235 107.843 507.149 136.597C507.149 165.522 502.868 190.242 494.305 210.756C485.829 231.27 473.67 246.934 457.83 257.749C441.99 268.564 423.024 273.971 400.933 273.971ZM400.933 227.75C416.003 227.75 428.033 220.154 437.024 204.962C446.014 189.77 450.466 166.981 450.381 136.597C450.381 116.598 448.326 99.9467 444.216 86.6428C440.192 73.3388 434.455 63.3394 427.006 56.6445C419.642 49.9496 410.951 46.6022 400.933 46.6022C385.949 46.6022 373.962 54.1125 364.972 69.1331C355.981 84.1536 351.443 106.642 351.357 136.597C351.357 156.853 353.37 173.762 357.394 187.324C361.504 200.799 367.283 210.927 374.733 217.708C382.182 224.403 390.915 227.75 400.933 227.75Z" fill="#2862FF"/>
<path d="M542.822 221.828V177.925L652.633 4.50161H690.393V65.2706H668.046L598.819 175.093V177.153H754.868V221.828H542.822ZM669.073 268.177V208.438L670.101 188.997V4.50161H722.245V268.177H669.073Z" fill="#2862FF"/>
</mask>
<g mask="url(#mask9_40_823)">
<rect x="48.7007" y="0.896667" width="706.167" height="54.6149" fill="#FF0000"/>
</g>
<mask id="mask10_40_823" style="mask-type:alpha" maskUnits="userSpaceOnUse" x="40" y="18" width="707" height="274">
<path d="M40.0044 239.222V195.319L149.816 21.8951H187.576V82.6641H165.228L96.002 192.486V194.546H252.05V239.222H40.0044ZM166.256 285.571V225.832L167.283 206.391V21.8951H219.428V285.571H166.256Z" fill="#2862FF"/>
<path d="M392.237 291.364C370.146 291.279 351.138 285.828 335.212 275.013C319.372 264.199 307.17 248.534 298.608 228.02C290.131 207.507 285.936 182.83 286.021 153.99C286.021 125.237 290.26 100.732 298.736 80.4754C307.299 60.219 319.5 44.8122 335.34 34.2549C351.266 23.6117 370.232 18.2901 392.237 18.2901C414.242 18.2901 433.165 23.6117 449.005 34.2549C464.931 44.898 477.175 60.3478 485.738 80.6041C494.3 100.775 498.538 125.237 498.453 153.99C498.453 182.916 494.171 207.635 485.609 228.149C477.132 248.663 464.974 264.327 449.134 275.142C433.293 285.957 414.328 291.364 392.237 291.364ZM392.237 245.144C407.307 245.144 419.337 237.548 428.327 222.356C437.318 207.163 441.77 184.375 441.684 153.99C441.684 133.992 439.629 117.34 435.52 104.036C431.495 90.7323 425.758 80.7329 418.309 74.038C410.946 67.3431 402.255 63.9956 392.237 63.9956C377.253 63.9956 365.266 71.5059 356.275 86.5265C347.285 101.547 342.747 124.035 342.661 153.99C342.661 174.247 344.673 191.156 348.698 204.717C352.807 218.193 358.587 228.321 366.036 235.102C373.485 241.796 382.219 245.144 392.237 245.144Z" fill="#2862FF"/>
<path d="M534.125 239.222V195.319L643.937 21.8951H681.697V82.6641H659.349L590.123 192.486V194.546H746.171V239.222H534.125ZM660.377 285.571V225.832L661.404 206.391V21.8951H713.549V285.571H660.377Z" fill="#2862FF"/>
</mask>
<g mask="url(#mask10_40_823)">
<rect x="40.0046" y="235.01" width="706.167" height="56.3542" fill="black"/>
</g>
<mask id="mask11_40_823" style="mask-type:alpha" maskUnits="userSpaceOnUse" x="40" y="0" width="707" height="274">
<path d="M40.0044 221.828V177.925L149.816 4.50161H187.576V65.2706H165.228L96.002 175.093V177.153H252.05V221.828H40.0044ZM166.256 268.177V208.438L167.283 188.997V4.50161H219.428V268.177H166.256Z" fill="#2862FF"/>
<path d="M392.237 273.971C370.146 273.885 351.138 268.435 335.212 257.62C319.372 246.805 307.17 231.141 298.608 210.627C290.131 190.113 285.936 165.436 286.021 136.597C286.021 107.843 290.26 83.3382 298.736 63.0819C307.299 42.8256 319.5 27.4187 335.34 16.8614C351.266 6.21825 370.232 0.896667 392.237 0.896667C414.242 0.896667 433.165 6.21825 449.005 16.8614C464.931 27.5046 477.175 42.9543 485.738 63.2106C494.3 83.3812 498.538 107.843 498.453 136.597C498.453 165.522 494.171 190.242 485.609 210.756C477.132 231.27 464.974 246.934 449.134 257.749C433.293 268.564 414.328 273.971 392.237 273.971ZM392.237 227.75C407.307 227.75 419.337 220.154 428.327 204.962C437.318 189.77 441.77 166.981 441.684 136.597C441.684 116.598 439.63 99.9467 435.52 86.6428C431.495 73.3388 425.759 63.3394 418.309 56.6445C410.946 49.9496 402.255 46.6022 392.237 46.6022C377.253 46.6022 365.266 54.1125 356.275 69.1331C347.285 84.1536 342.747 106.642 342.661 136.597C342.661 156.853 344.673 173.762 348.698 187.324C352.808 200.799 358.587 210.927 366.036 217.708C373.486 224.403 382.219 227.75 392.237 227.75Z" fill="#2862FF"/>
<path d="M534.125 221.828V177.925L643.937 4.50161H681.697V65.2706H659.349L590.123 175.093V177.153H746.171V221.828H534.125ZM660.377 268.177V208.438L661.404 188.997V4.50161H713.549V268.177H660.377Z" fill="#2862FF"/>
</mask>
<g mask="url(#mask11_40_823)">
<rect x="40.0046" y="163.349" width="706.167" height="54.6149" fill="black"/>
</g>
<mask id="mask12_40_823" style="mask-type:alpha" maskUnits="userSpaceOnUse" x="67" y="0" width="707" height="274">
<path d="M67.8331 221.828V177.925L177.645 4.50161H215.405V65.2706H193.057L123.831 175.093V177.153H279.879V221.828H67.8331ZM194.085 268.177V208.438L195.112 188.997V4.50161H247.257V268.177H194.085Z" fill="#2862FF"/>
<path d="M420.066 273.971C397.975 273.885 378.967 268.435 363.041 257.62C347.2 246.805 334.999 231.141 326.437 210.627C317.96 190.113 313.764 165.436 313.85 136.597C313.85 107.843 318.088 83.3382 326.565 63.0819C335.127 42.8256 347.329 27.4187 363.169 16.8614C379.095 6.21825 398.061 0.896667 420.066 0.896667C442.071 0.896667 460.994 6.21825 476.834 16.8614C492.76 27.5046 505.004 42.9543 513.566 63.2106C522.129 83.3811 526.367 107.843 526.281 136.597C526.281 165.522 522 190.242 513.438 210.756C504.961 231.27 492.803 246.934 476.962 257.749C461.122 268.564 442.156 273.971 420.066 273.971ZM420.066 227.75C435.135 227.75 447.165 220.154 456.156 204.962C465.146 189.77 469.599 166.981 469.513 136.597C469.513 116.598 467.458 99.9467 463.348 86.6428C459.324 73.3388 453.587 63.3394 446.138 56.6445C438.774 49.9496 430.084 46.6022 420.066 46.6022C405.082 46.6022 393.094 54.1125 384.104 69.1331C375.113 84.1536 370.575 106.642 370.49 136.597C370.49 156.853 372.502 173.762 376.526 187.324C380.636 200.799 386.416 210.927 393.865 217.708C401.314 224.403 410.048 227.75 420.066 227.75Z" fill="#2862FF"/>
<path d="M561.954 221.828V177.925L671.766 4.50161H709.526V65.2706H687.178L617.952 175.093V177.153H774V221.828H561.954ZM688.206 268.177V208.438L689.233 188.997V4.50161H741.378V268.177H688.206Z" fill="#2862FF"/>
</mask>
<g mask="url(#mask12_40_823)">
<rect x="67.833" y="108.735" width="706.167" height="54.6149" fill="black"/>
</g>
<mask id="mask13_40_823" style="mask-type:alpha" maskUnits="userSpaceOnUse" x="10" y="0" width="707" height="274">
<path d="M10.4357 221.828V177.925L120.248 4.50167H158.007V65.2707H135.66L66.4333 175.093V177.153H222.482V221.828H10.4357ZM136.687 268.177V208.438L137.715 188.997V4.50167H189.859V268.177H136.687Z" fill="#2862FF"/>
<path d="M362.668 273.971C340.577 273.885 321.569 268.435 305.643 257.62C289.803 246.805 277.602 231.141 269.039 210.627C260.563 190.113 256.367 165.437 256.453 136.597C256.453 107.843 260.691 83.3383 269.168 63.082C277.73 42.8256 289.931 27.4188 305.772 16.8615C321.698 6.21831 340.663 0.896729 362.668 0.896729C384.673 0.896729 403.596 6.21831 419.436 16.8615C435.362 27.5046 447.607 42.9544 456.169 63.2107C464.731 83.3812 468.97 107.843 468.884 136.597C468.884 165.522 464.603 190.242 456.04 210.756C447.564 231.27 435.405 246.934 419.565 257.749C403.725 268.564 384.759 273.971 362.668 273.971ZM362.668 227.751C377.738 227.751 389.768 220.154 398.759 204.962C407.749 189.77 412.201 166.982 412.116 136.597C412.116 116.598 410.061 99.9468 405.951 86.6428C401.927 73.3389 396.19 63.3395 388.741 56.6446C381.377 49.9497 372.686 46.6022 362.668 46.6022C347.684 46.6022 335.697 54.1125 326.707 69.1331C317.716 84.1537 313.178 106.642 313.092 136.597C313.092 156.853 315.105 173.762 319.129 187.324C323.239 200.799 329.018 210.927 336.468 217.708C343.917 224.403 352.65 227.751 362.668 227.751Z" fill="#2862FF"/>
<path d="M504.557 221.828V177.925L614.368 4.50167H652.128V65.2707H629.781L560.554 175.093V177.153H716.603V221.828H504.557ZM630.808 268.177V208.438L631.836 188.997V4.50167H683.98V268.177H630.808Z" fill="#2862FF"/>
</mask>
<g mask="url(#mask13_40_823)">
<rect x="10.4357" y="54.1203" width="706.167" height="54.6149" fill="black"/>
</g>
<mask id="mask14_40_823" style="mask-type:alpha" maskUnits="userSpaceOnUse" x="57" y="0" width="707" height="274">
<path d="M57.3974 221.828V177.925L167.209 4.50161H204.969V65.2706H182.621L113.395 175.093V177.153H269.443V221.828H57.3974ZM183.649 268.177V208.438L184.676 188.997V4.50161H236.821V268.177H183.649Z" fill="#2862FF"/>
<path d="M409.63 273.971C387.539 273.885 368.531 268.435 352.605 257.62C336.765 246.805 324.563 231.141 316.001 210.627C307.524 190.113 303.329 165.436 303.414 136.597C303.414 107.843 307.653 83.3382 316.129 63.0819C324.692 42.8256 336.893 27.4187 352.733 16.8614C368.659 6.21825 387.625 0.896667 409.63 0.896667C431.635 0.896667 450.558 6.21825 466.398 16.8614C482.324 27.5046 494.568 42.9543 503.131 63.2106C511.693 83.3811 515.931 107.843 515.846 136.597C515.846 165.522 511.564 190.242 503.002 210.756C494.525 231.27 482.367 246.934 466.527 257.749C450.686 268.564 431.721 273.971 409.63 273.971ZM409.63 227.75C424.7 227.75 436.73 220.154 445.72 204.962C454.711 189.77 459.163 166.981 459.077 136.597C459.077 116.598 457.022 99.9467 452.912 86.6428C448.888 73.3388 443.151 63.3394 435.702 56.6445C428.339 49.9496 419.648 46.6022 409.63 46.6022C394.646 46.6022 382.659 54.1125 373.668 69.1331C364.678 84.1536 360.14 106.642 360.054 136.597C360.054 156.853 362.066 173.762 366.091 187.324C370.2 200.799 375.98 210.927 383.429 217.708C390.878 224.403 399.612 227.75 409.63 227.75Z" fill="#2862FF"/>
<path d="M551.518 221.828V177.925L661.33 4.50161H699.09V65.2706H676.742L607.516 175.093V177.153H763.564V221.828H551.518ZM677.77 268.177V208.438L678.797 188.997V4.50161H730.942V268.177H677.77Z" fill="#2862FF"/>
</mask>
<g mask="url(#mask14_40_823)">
<rect x="57.3974" y="0.896667" width="706.167" height="54.6149" fill="black"/>
</g>
</svg>
